<?xml version="1.0" standalone="no"?>
<!DOCTYPE svg PUBLIC "-//W3C//DTD SVG 20010904//EN"
 "http://www.w3.org/TR/2001/REC-SVG-20010904/DTD/svg10.dtd">
<svg version="1.0" xmlns="http://www.w3.org/2000/svg"
 width="1024.000000pt" height="1024.000000pt" viewBox="0 0 1024.000000 1024.000000"
 preserveAspectRatio="xMidYMid meet">

<g transform="translate(0.000000,1024.000000) scale(0.100000,-0.100000)"
fill="#000000" stroke="none">
<path d="M0 5120 l0 -5120 5120 0 5120 0 0 5120 0 5120 -5120 0 -5120 0 0
-5120z m3308 3508 c16 -111 16 -340 0 -356 -20 -20 -56 -14 -74 13 -15 23 -16
46 -10 188 4 89 7 179 7 199 -1 25 4 40 16 47 34 18 48 -3 61 -91z m2202 -28
c232 -21 573 -94 770 -166 250 -92 333 -128 314 -136 -16 -7 -15 -8 4 -4 36 7
269 -102 306 -143 19 -21 19 -22 -9 -51 -16 -17 -34 -30 -41 -30 -7 0 -32 16
-56 37 -23 20 -68 47 -98 61 -30 13 -88 40 -129 58 -174 80 -438 171 -596 204
-372 79 -629 99 -1002 81 -243 -13 -279 -17 -501 -62 -253 -50 -456 -119 -692
-233 l-115 -56 -22 25 c-42 47 -33 57 103 120 145 66 244 106 244 98 0 -3 6
-1 13 5 41 35 316 114 523 151 246 44 722 64 984 41z m504 -309 c24 -26 17
-62 -16 -80 -25 -15 -29 -14 -52 8 -30 28 -33 47 -9 73 21 23 55 23 77 -1z
m-2640 -172 c53 -35 90 -115 84 -180 -6 -57 -26 -90 -87 -136 -63 -49 -96 -51
-178 -11 -76 37 -106 73 -117 139 -13 79 31 160 106 198 58 30 141 25 192 -10z
m1457 -52 c38 -26 64 -84 55 -122 -28 -112 -188 -125 -232 -20 -45 108 80 208
177 142z m-1883 -79 c7 -7 12 -27 12 -45 l0 -33 -296 2 c-270 3 -298 5 -308
21 -8 12 -8 22 0 35 10 15 36 18 235 22 123 3 251 7 285 8 36 1 65 -3 72 -10z
m1220 -11 c18 -14 15 -45 -7 -57 -12 -6 -128 -10 -305 -10 -240 0 -286 2 -286
14 0 8 -3 21 -6 29 -3 8 2 22 12 31 15 16 42 17 298 10 159 -4 286 -11 294
-17z m3698 -46 c247 -46 427 -128 558 -252 98 -93 146 -160 197 -279 71 -164
84 -232 83 -425 0 -158 -3 -181 -37 -330 -46 -207 -107 -377 -214 -600 -242
-508 -549 -930 -1037 -1425 -412 -418 -792 -729 -1303 -1063 -382 -251 -884
-511 -1443 -749 -299 -128 -739 -270 -1025 -332 -91 -20 -352 -62 -480 -78
-236 -28 -624 -6 -838 47 -172 43 -392 161 -510 273 -104 100 -163 199 -205
350 -25 89 -27 111 -27 282 0 143 4 205 19 275 72 342 291 766 644 1245 181
245 482 609 642 775 43 44 97 105 120 135 23 30 48 55 54 55 17 0 19 -34 6
-92 -9 -44 -23 -66 -85 -133 -40 -44 -95 -106 -122 -138 -26 -31 -77 -91 -114
-132 -144 -165 -388 -486 -501 -660 -249 -384 -389 -666 -460 -929 -29 -108
-31 -127 -32 -291 -1 -195 15 -281 75 -403 108 -222 367 -396 663 -447 102
-17 152 -22 351 -35 109 -7 394 13 570 41 197 30 491 99 651 152 320 108 486
170 674 252 52 23 127 55 165 72 125 53 546 264 711 357 1112 619 2150 1636
2612 2558 64 128 155 350 203 496 53 161 76 367 59 528 -27 265 -124 443 -320
588 -199 148 -463 209 -857 199 -249 -7 -446 -40 -808 -138 -194 -52 -485
-155 -665 -235 -179 -81 -201 -88 -273 -93 -73 -4 -79 -3 -75 14 4 22 128 89
318 173 446 195 1000 356 1395 406 165 21 517 14 661 -14z m-2104 -18 c28 -33
29 -53 3 -79 -13 -13 -30 -24 -36 -24 -20 0 -59 42 -59 63 0 48 62 75 92 40z
m-630 -40 c24 -21 23 -60 -1 -73 -32 -17 -50 -12 -65 19 -13 25 -13 31 0 50
18 25 41 27 66 4z m-1823 -195 c18 -66 19 -400 2 -421 -29 -36 -74 -10 -83 48
-3 17 -3 102 1 190 6 149 8 162 30 193 14 17 28 32 32 32 3 0 12 -19 18 -42z
m-408 -1 c-10 -9 -11 -8 -5 6 3 10 9 15 12 12 3 -3 0 -11 -7 -18z m-61 3 c0
-5 9 -10 19 -10 11 0 23 -5 27 -12 4 -7 3 -8 -4 -4 -7 4 -12 2 -12 -4 0 -7
-33 -49 -73 -94 -139 -154 -370 -449 -448 -571 -172 -267 -297 -523 -369 -749
-67 -211 -107 -384 -141 -602 l-23 -150 -29 -2 c-16 -1 -36 3 -43 9 -11 9 -14
8 -14 -6 0 -10 -2 -16 -5 -14 -2 3 7 79 20 169 24 165 47 263 69 289 6 8 10
17 9 20 -2 3 2 6 7 6 11 0 14 11 7 23 -2 4 -2 1 0 -6 1 -7 -2 -10 -8 -7 -12 8
-7 47 26 175 60 236 212 595 248 586 7 -1 9 -1 5 1 -19 11 -15 20 104 221 99
167 353 516 368 507 5 -3 12 0 16 6 4 8 3 9 -4 5 -16 -10 -15 2 1 19 27 29 47
56 47 64 0 5 10 18 23 28 13 10 26 26 30 36 4 10 11 15 17 12 5 -3 10 1 10 9
0 10 6 13 15 9 10 -3 15 -1 13 7 -2 9 9 13 32 14 22 1 34 6 33 14 -2 6 4 12
12 12 8 0 15 -4 15 -10z m4611 -94 c98 -16 243 -68 325 -117 83 -49 157 -121
213 -204 59 -89 84 -152 112 -287 31 -152 23 -396 -19 -593 -72 -336 -253
-718 -493 -1041 -149 -202 -444 -524 -684 -748 -153 -143 -496 -426 -658 -544
-670 -486 -1601 -951 -2267 -1131 -372 -101 -532 -125 -825 -125 -190 0 -234
3 -323 22 -438 95 -671 317 -728 696 -20 126 -14 220 26 414 58 282 122 450
268 702 71 123 225 346 308 446 37 44 108 131 160 195 98 122 149 173 165 163
5 -3 9 -33 9 -68 0 -56 -3 -66 -33 -102 -103 -121 -316 -407 -386 -519 -170
-270 -298 -581 -337 -820 -19 -121 -14 -329 10 -420 41 -151 142 -291 274
-378 108 -72 206 -107 374 -132 226 -35 423 -29 718 21 757 127 1889 675 2636
1275 312 250 619 528 767 693 461 514 691 892 812 1331 48 178 59 262 52 434
-4 120 -9 160 -31 226 -102 318 -367 466 -836 468 -297 2 -616 -53 -963 -164
l-158 -51 -77 14 -77 13 51 32 c75 49 272 127 450 179 271 79 490 120 734 137
89 7 349 -4 431 -17z m578 -104 c19 -16 21 -20 8 -25 -17 -6 -118 59 -125 81
-5 15 77 -25 117 -56z m98 -139 c10 -27 50 -73 57 -65 4 3 4 -2 0 -11 -5 -15
-2 -17 20 -13 15 3 24 1 21 -5 -4 -5 -2 -9 3 -9 28 0 70 -176 51 -211 -10 -20
-14 -14 -38 62 -32 98 -60 156 -108 222 -19 26 -30 47 -24 47 7 0 15 -8 18
-17z m-1044 -63 c151 -13 222 -31 322 -83 153 -81 256 -211 300 -382 22 -88
20 -305 -5 -425 -67 -323 -270 -730 -522 -1043 -202 -251 -512 -570 -768 -792
-238 -205 -593 -466 -830 -607 -697 -418 -1465 -726 -1975 -792 -239 -32 -554
-15 -722 39 -263 83 -421 289 -440 572 -19 298 134 706 419 1113 115 163 167
223 183 210 10 -8 45 -120 45 -144 0 -3 -13 -20 -29 -38 -47 -54 -188 -308
-247 -443 -114 -263 -140 -518 -73 -712 66 -193 276 -348 516 -383 294 -42
751 34 1163 195 499 195 1010 466 1386 736 444 319 758 617 1152 1092 72 88
229 321 285 424 78 142 122 252 157 388 91 354 13 610 -232 757 -162 99 -455
133 -779 92 -125 -16 -128 -16 -184 5 -30 12 -64 21 -74 21 -26 0 -45 24 -29
38 35 27 356 121 488 143 74 12 229 25 325 27 28 1 103 -3 168 -8z m-1819 -81
c391 -38 784 -228 1082 -524 131 -130 204 -233 295 -411 119 -238 186 -486
177 -664 -3 -62 -4 -65 -30 -68 -37 -4 -45 15 -57 143 -11 115 -58 293 -107
402 -14 32 -50 101 -81 153 -31 52 -70 119 -87 147 -16 29 -50 72 -74 95 l-43
43 15 -37 16 -37 -59 -79 c-315 -424 -758 -833 -1236 -1139 -357 -228 -824
-451 -1120 -534 -38 -11 -97 -29 -130 -40 -69 -24 -267 -69 -302 -69 -12 0
-23 -4 -23 -9 0 -21 89 -166 103 -169 38 -8 438 113 697 210 429 160 985 489
1385 819 158 130 420 381 509 488 36 43 78 92 94 109 l28 30 -1 -49 c-1 -27 2
-49 5 -49 3 0 5 -11 5 -25 -3 -49 -207 -275 -430 -474 -317 -283 -742 -568
-1165 -781 -280 -141 -717 -290 -1038 -355 -18 -4 -32 -10 -30 -15 7 -19 131
-162 145 -167 8 -3 41 2 72 12 86 27 90 27 36 0 -27 -13 -58 -25 -68 -25 -44
0 132 -166 273 -257 47 -31 95 -64 107 -75 20 -19 20 -21 5 -49 -10 -16 -20
-29 -25 -29 -19 0 -177 86 -227 123 -213 161 -344 294 -467 477 -187 279 -303
680 -303 1049 0 193 9 277 50 465 87 399 347 790 700 1054 292 218 714 340
1125 324 44 -2 124 -7 179 -13z m-2340 -205 c3 -9 6 -19 6 -24 0 -12 -29 -40
-41 -40 -13 0 -31 50 -25 67 7 18 53 16 60 -3z m264 -16 c35 -35 -15 -99 -53
-68 -30 25 -12 80 25 80 9 0 21 -5 28 -12z m-605 -140 c19 -25 19 -28 4 -52
-22 -33 -52 -41 -82 -22 -33 21 -40 52 -20 82 22 34 70 30 98 -8z m4367 -138
c11 -11 20 -28 20 -37 0 -21 -39 -63 -59 -63 -21 0 -61 40 -61 62 0 24 35 58
60 58 11 0 29 -9 40 -20z m-4232 -242 c28 -28 0 -93 -37 -86 -25 5 -44 53 -31
78 12 22 49 27 68 8z m4406 -134 c31 -31 7 -94 -35 -94 -21 0 -59 37 -59 59 0
42 63 66 94 35z m-677 -154 c14 -11 30 -17 37 -13 8 5 8 3 1 -8 -6 -8 -24 -33
-40 -57 -21 -32 -31 -40 -38 -30 -6 9 -7 6 -4 -10 5 -20 2 -23 -14 -19 -10 3
-19 1 -19 -4 0 -5 5 -9 12 -9 6 0 8 -3 4 -7 -12 -13 -52 41 -46 62 5 20 69
115 78 115 2 0 15 -9 29 -20z m-3936 -140 c25 -14 50 -64 42 -87 -20 -58 -86
-73 -122 -27 -29 37 -26 68 10 98 34 29 42 31 70 16z m-187 -636 c21 -20 20
-43 -1 -66 -20 -22 -51 -23 -75 -1 -22 20 -23 41 -1 65 20 22 56 23 77 2z
m-524 -315 c0 -94 -4 -168 -9 -165 -16 10 -24 204 -10 272 7 35 14 64 16 64 2
0 3 -77 3 -171z m4060 66 c0 -2 -10 -9 -22 -15 -22 -11 -22 -10 -4 4 21 17 26
19 26 11z m-4147 -177 c3 -77 2 -128 -4 -128 -5 0 -9 56 -9 132 0 72 2 129 4
127 2 -2 6 -61 9 -131z m4042 94 c-22 -20 -39 -41 -37 -45 1 -5 -2 -6 -8 -2
-5 3 -10 1 -10 -5 0 -6 -5 -8 -11 -5 -6 4 -13 -1 -15 -11 -3 -11 -21 -26 -40
-35 -53 -25 -38 -8 61 70 99 78 121 90 60 33z m-166 -125 c-16 -13 -79 -48
-79 -44 0 7 63 47 74 47 5 0 7 -1 5 -3z m2501 -49 c27 -30 26 -64 -5 -84 -29
-19 -58 -12 -79 21 -18 28 -10 56 22 74 26 16 39 13 62 -11z m-2604 -20 c4 -7
4 -10 -1 -6 -4 4 -32 -11 -62 -33 -30 -23 -56 -39 -59 -37 -3 3 94 78 113 87
1 1 5 -5 9 -11z m-3769 -85 c-3 -10 -5 -4 -5 12 0 17 2 24 5 18 2 -7 2 -21 0
-30z m3533 -57 c0 -2 -12 -11 -27 -20 l-28 -17 24 20 c23 21 31 25 31 17z
m-3460 -171 c5 -63 1 -75 -30 -75 -13 0 -30 59 -30 104 0 31 3 37 10 26 9 -13
12 -13 21 3 16 27 23 13 29 -58z m3260 47 c0 -8 -46 -35 -62 -36 -13 -2 -183
-91 -186 -98 -2 -5 -8 -8 -13 -8 -26 0 14 26 129 85 145 73 132 67 132 57z
m-160 -122 c8 -5 11 -10 5 -10 -5 0 -17 5 -25 10 -8 5 -10 10 -5 10 6 0 17 -5
25 -10z m30 -24 c0 -9 -30 -14 -35 -6 -4 6 3 10 14 10 12 0 21 -2 21 -4z
m-195 -16 c-8 -12 -97 -52 -103 -45 -2 2 20 15 49 29 65 29 62 28 54 16z m143
-11 c-11 -6 -24 -6 -34 -1 -12 7 -8 9 18 10 26 1 30 -1 16 -9z m-41 -15 c-3
-3 -12 -4 -19 -1 -8 3 -5 6 6 6 11 1 17 -2 13 -5z m-67 -29 c0 -2 -9 -9 -20
-15 -12 -6 -20 -7 -20 -1 0 5 8 12 18 14 9 3 18 5 20 6 1 0 2 -1 2 -4z m3024
-131 c43 -43 43 -79 -1 -114 -35 -27 -59 -25 -94 9 -36 36 -37 65 -3 96 31 29
75 33 98 9z m-4639 -189 c29 -28 31 -42 9 -73 -20 -28 -61 -29 -91 0 -30 28
-29 52 3 77 34 27 50 26 79 -4z m-1125 -157 c-33 -110 -39 -123 -51 -111 -12
12 6 94 43 188 22 57 23 58 26 28 2 -18 -7 -65 -18 -105z m1618 -184 c26 -18
28 -41 5 -66 -20 -22 -41 -23 -65 -1 -32 28 -18 83 22 83 8 0 26 -7 38 -16z
m3489 -377 c3 -90 3 -176 -1 -191 -6 -24 -11 -27 -44 -24 l-37 3 -3 150 c-4
184 2 235 29 242 10 3 19 10 19 16 0 6 7 2 15 -10 11 -16 17 -64 22 -186z
m-5168 106 c7 -43 19 -103 27 -134 16 -66 18 -113 4 -104 -5 3 -10 0 -10 -7
-1 -22 -22 22 -35 73 -12 44 -19 145 -16 222 2 53 18 26 30 -50z m4633 -220
c23 -21 23 -55 -1 -77 -25 -23 -52 -17 -70 15 -13 24 -13 29 2 53 20 30 43 33
69 9z m567 -222 c107 -55 149 -177 97 -286 -28 -60 -46 -77 -109 -105 -45 -20
-50 -20 -100 -6 -74 22 -118 54 -145 106 -19 37 -23 57 -20 117 3 62 7 76 34
109 63 78 164 105 243 65z m-1299 -133 c17 -31 10 -51 -26 -75 -18 -12 -24
-11 -47 8 -31 24 -35 54 -10 81 24 26 64 19 83 -14z m448 -47 c19 -23 -11 -41
-69 -41 -48 0 -65 14 -53 44 11 29 99 26 122 -3z m460 -19 l3 -42 -183 2 -183
3 -3 43 -3 42 183 -2 183 -3 3 -43z m958 26 c26 -9 51 -9 112 1 88 14 122 6
122 -30 0 -29 -19 -32 -120 -19 -84 11 -93 10 -112 -7 -17 -16 -42 -18 -179
-21 l-159 -4 0 24 c0 12 3 33 6 46 6 22 9 22 152 22 87 0 159 -5 178 -12z
m-602 -340 c9 -37 7 -364 -3 -391 -12 -30 -46 -41 -63 -19 -15 17 -24 279 -13
367 6 49 9 54 33 58 15 2 30 5 33 6 4 0 9 -9 13 -21z m-1857 -40 c43 -40 19
-108 -38 -108 -32 0 -69 34 -69 64 0 26 38 66 64 66 11 0 30 -10 43 -22z m503
-50 c26 -28 25 -42 -2 -68 -29 -26 -56 -22 -81 12 l-21 28 24 25 c29 31 53 32
80 3z m-2003 -141 c11 -13 22 -36 25 -50 4 -22 2 -27 -15 -27 -28 0 -87 47
-87 70 0 35 48 40 77 7z m193 -148 c10 -6 5 -7 -15 -3 -16 4 -34 11 -40 16
-11 12 31 1 55 -13z m70 -29 c8 -5 11 -10 5 -10 -5 0 -17 5 -25 10 -8 5 -10
10 -5 10 6 0 17 -5 25 -10z m275 -32 c7 -7 1 -8 -15 -3 -40 12 -59 26 -25 19
17 -4 35 -11 40 -16z m-121 -14 c42 -5 116 -35 116 -46 0 -6 -6 -8 -12 -5 -7
2 -40 12 -73 22 -32 9 -68 24 -80 32 -20 15 -20 15 0 8 11 -4 33 -8 49 -11z
m739 -91 c-7 -2 -19 -2 -25 0 -7 3 -2 5 12 5 14 0 19 -2 13 -5z m80 -10 c-7
-2 -21 -2 -30 0 -10 3 -4 5 12 5 17 0 24 -2 18 -5z"/>
<path d="M5840 8488 c0 -9 41 -12 112 -8 33 1 53 -3 64 -14 17 -17 64 -22 64
-6 0 16 -81 33 -162 34 -43 1 -78 -2 -78 -6z"/>
<path d="M6200 8435 c7 -8 17 -15 22 -15 6 0 5 7 -2 15 -7 8 -17 15 -22 15 -6
0 -5 -7 2 -15z"/>
<path d="M6220 8405 c-25 -14 -24 -14 18 -15 24 0 53 -5 65 -12 24 -13 97 -20
97 -9 0 4 -14 8 -30 9 -17 1 -45 11 -63 22 -38 23 -53 24 -87 5z"/>
<path d="M6485 8330 c3 -5 11 -10 16 -10 6 0 7 5 4 10 -3 6 -11 10 -16 10 -6
0 -7 -4 -4 -10z"/>
<path d="M4736 8004 c-41 -41 2 -101 50 -69 29 19 32 60 5 75 -27 14 -37 13
-55 -6z"/>
<path d="M5546 6992 c-13 -21 -40 -70 -59 -109 -44 -86 -187 -278 -292 -390
-84 -91 -283 -265 -416 -364 -225 -167 -585 -367 -855 -473 -154 -60 -367
-124 -511 -151 l-93 -18 0 -68 c0 -81 -2 -80 122 -54 230 48 465 133 798 288
391 181 906 569 1164 877 134 160 286 391 286 435 0 17 -3 18 -68 44 l-52 21
-24 -38z"/>
<path d="M5876 6868 c-7 -13 -42 -72 -76 -133 -88 -156 -183 -278 -345 -444
-327 -334 -662 -574 -1125 -806 -311 -156 -576 -249 -917 -321 -46 -9 -83 -20
-83 -23 1 -3 7 -33 14 -66 l12 -60 60 2 c63 3 174 29 366 87 418 127 950 404
1308 680 270 208 402 326 564 506 166 185 280 335 369 486 6 11 -106 114 -124
114 -5 0 -15 -10 -23 -22z"/>
<path d="M6103 6619 c-82 -138 -322 -419 -529 -619 -457 -441 -1172 -867
-1731 -1030 -156 -46 -322 -86 -401 -96 -43 -5 -52 -10 -47 -23 4 -9 16 -45
28 -79 l22 -64 50 7 c75 9 341 80 505 135 334 111 766 335 1133 588 420 290
864 715 1137 1089 l31 42 -55 55 c-89 89 -87 89 -143 -5z"/>
<path d="M6417 6169 c7 -7 15 -10 18 -7 3 3 -2 9 -12 12 -14 6 -15 5 -6 -5z"/>
</g>
</svg>
